<svg width="185" height="181" viewBox="0 0 185 181" fill="none" xmlns="http://www.w3.org/2000/svg">
<g clip-path="url(#clip0_402_65750)">
<g opacity="0.41">
<path d="M3.28462 114.702C2.95866 111.666 2.88639 108.608 3.06856 105.56C3.93681 91.2498 10.4187 77.456 20.4736 67.4295C24.0746 63.8541 28.1798 60.6026 30.4005 56.0153C34.1416 48.2885 33.3973 39.6779 38.1347 31.9951C42.8921 24.2732 49.9417 18.2277 58.3005 14.7017C82.9157 4.51533 118.718 17.1014 117.118 48.0646C117.118 48.1765 117.118 48.3365 117.118 48.5405C117.081 50.0421 117.351 51.5355 117.909 52.9301C118.467 54.3247 119.303 55.5915 120.365 56.6538C121.427 57.7162 122.695 58.5519 124.09 59.1103C125.485 59.6688 126.979 59.9383 128.481 59.9027C151.632 59.2388 172.442 76.3762 177.855 99.1926C181.336 113.87 177.663 130.352 167.564 141.398C160.026 149.645 149.603 154.508 139.104 158.027C118.058 165.082 95.6634 167.514 73.545 166.426C52.839 165.398 30.8086 160.507 16.6765 145.037C9.11431 136.775 4.48897 125.924 3.28462 114.702Z" fill="#E1E2FE"/>
</g>
<g opacity="0.31">
<path d="M119.352 12.6514C119.41 9.71593 117.126 7.28962 114.248 7.2321C111.371 7.17459 108.991 9.50765 108.933 12.4431C108.874 15.3786 111.159 17.8049 114.036 17.8624C116.913 17.92 119.293 15.5869 119.352 12.6514Z" fill="#E1E2FE"/>
</g>
<g opacity="0.31">
<path d="M26.0151 12.7421C26.0542 13.2692 26.248 13.773 26.5722 14.1906C26.8963 14.6082 27.3365 14.921 27.8376 15.0898C28.3386 15.2587 28.8784 15.2761 29.3893 15.1399C29.9002 15.0037 30.3596 14.7199 30.7101 14.3241C31.0605 13.9282 31.2864 13.4379 31.3594 12.9144C31.4325 12.391 31.3495 11.8576 31.1209 11.381C30.8923 10.9044 30.5281 10.5058 30.074 10.235C29.6199 9.9642 29.096 9.83326 28.5678 9.85855C28.2099 9.87786 27.8594 9.96807 27.5367 10.124C27.214 10.2798 26.9255 10.4983 26.688 10.7666C26.4504 11.0349 26.2686 11.3477 26.1531 11.6868C26.0376 12.026 25.9907 12.3847 26.0151 12.7421Z" fill="#E1E2FE"/>
</g>
<g opacity="0.31">
<path d="M180.648 74.7324C180.674 75.0816 180.802 75.4155 181.017 75.6923C181.231 75.9691 181.523 76.1765 181.854 76.2885C182.186 76.4005 182.544 76.4121 182.883 76.3219C183.221 76.2317 183.525 76.0438 183.758 75.7815C183.99 75.5192 184.139 75.1944 184.187 74.8475C184.236 74.5007 184.181 74.1473 184.029 73.8317C183.877 73.5161 183.636 73.2521 183.335 73.073C183.034 72.8939 182.687 72.8075 182.337 72.8246C182.1 72.8384 181.869 72.8987 181.656 73.0022C181.443 73.1057 181.252 73.2502 181.096 73.4275C180.939 73.6048 180.818 73.8113 180.742 74.0353C180.665 74.2592 180.633 74.4961 180.648 74.7324Z" fill="#E1E2FE"/>
</g>
<g opacity="0.31">
<path d="M172.356 166.262C172.453 161.64 168.86 157.816 164.331 157.721C159.802 157.626 156.052 161.296 155.955 165.918C155.858 170.54 159.451 174.364 163.98 174.459C168.509 174.554 172.259 170.884 172.356 166.262Z" fill="#E1E2FE"/>
</g>
<path opacity="0.47" d="M2.04807 32.739C0.81325 30.5695 0.474808 28.0038 1.10486 25.5886C1.73491 23.1733 3.28364 21.0995 5.42105 19.809C9.84633 17.1854 18.5969 16.8974 21.1616 21.4087C23.7263 25.92 16.9284 30.2913 14.2916 34.7706C10.6146 41.0177 4.61682 37.2623 2.04807 32.739Z" fill="#ECF1F7"/>
<path opacity="0.47" d="M29.072 174.337C28.3193 174.894 27.4625 175.295 26.5522 175.515C25.6419 175.736 24.6966 175.772 23.7722 175.62C22.8479 175.469 21.9632 175.135 21.1705 174.636C20.3778 174.137 19.6932 173.485 19.1571 172.717C16.8684 169.474 15.9962 162.691 19.1571 160.347C22.318 158.003 26.1031 162.963 29.6481 164.674C34.6096 167.042 32.2529 171.997 29.072 174.337Z" fill="#E1E2FE"/>
<path opacity="0.47" d="M155.177 3.27553C155.987 2.41624 156.961 1.72811 158.041 1.25191C159.122 0.775704 160.287 0.521113 161.468 0.503212C162.649 0.485311 163.821 0.704464 164.916 1.14769C166.011 1.59092 167.005 2.24921 167.841 3.08356C171.386 6.59902 173.93 14.8257 170.481 18.4492C167.032 22.0726 161.279 16.7574 156.521 15.4296C149.871 13.5779 151.728 6.89897 155.177 3.27553Z" fill="#E1E2FE"/>
<path opacity="0.32" d="M9.76226 52.8079C7.43358 59.5108 6.7974 66.8337 8.30583 73.7606C10.3304 83.0752 17.3124 91.2659 16.1201 101.2C15.4079 107.163 15.5359 112.627 15.3919 118.486C15.0958 130.512 23.5022 140.482 33.3651 145.453C41.3674 149.501 50.486 150.569 59.2766 149.793C67.1909 149.097 74.9851 147.021 82.5073 144.446C89.7574 141.966 96.7915 138.886 104.61 139.114C111.108 139.306 117.137 141.722 123.307 143.398C138.035 147.397 155.456 146.833 167.976 138.159C181.7 128.644 187.242 110.599 182.444 94.8253C179.876 86.3666 176.443 79.0358 177.683 70.0292C178.295 65.5939 179.203 61.0826 178.363 56.6873C177.591 52.6399 175.37 49.0005 172.737 45.8289C165.643 37.2823 155.532 31.8311 145.037 28.6316C133.126 24.9922 119.898 23.0325 107.511 24.8922C83.4436 28.5516 78.2061 24.9962 53.0508 21.4247C36.2019 19.0251 20.3813 32.427 12.7031 46.2209C11.5332 48.327 10.5492 50.531 9.76226 52.8079Z" fill="#E1E2FE"/>
<g opacity="0.83">
<path opacity="0.81" d="M21.4178 72.1608C24.8828 67.5935 30.2404 64.486 32.8651 59.2348C36.01 52.9438 35.3458 45.5249 38.1547 39.0979C42.2999 29.6034 49.814 21.5406 59.2207 17.1013C63.7541 14.9657 68.7275 13.6699 73.5809 14.0418C81.0631 14.6137 87.5209 19.069 92.5664 24.3842C100.077 32.311 105.39 43.5372 114.405 49.8882C119.378 53.3877 125.208 49.6763 130.493 48.4964C136.401 47.216 142.535 47.4235 148.343 49.1004C158.83 52.0839 167.86 59.5907 172.378 69.4972C177.199 80.0675 176.511 94.6933 167.46 103.768C163.275 107.975 157.597 110.783 154.488 115.822C150.591 122.141 150.131 130.684 149.043 137.711C147.786 145.607 144.511 153.046 139.536 159.307L139.364 159.519C135.18 164.732 129.405 168.434 122.919 170.058C116.434 171.683 109.595 171.142 103.446 168.518L76.9179 157.032C50.0021 145.369 29.5722 126.588 19.7653 99.3685C17.6407 93.4814 16.8725 80.9234 19.5773 75.1723C20.0834 74.1067 20.7003 73.0973 21.4178 72.1608Z" fill="#E1E2FE"/>
</g>
<path opacity="0.58" d="M145.426 168.466C146.42 168.466 147.226 167.66 147.226 166.666C147.226 165.672 146.42 164.866 145.426 164.866C144.431 164.866 143.625 165.672 143.625 166.666C143.625 167.66 144.431 168.466 145.426 168.466Z" fill="#3E479B"/>
<path opacity="0.58" d="M99.8612 9.48661C100.358 9.48661 100.761 9.08373 100.761 8.58675C100.761 8.08977 100.358 7.68689 99.8612 7.68689C99.364 7.68689 98.9609 8.08977 98.9609 8.58675C98.9609 9.08373 99.364 9.48661 99.8612 9.48661Z" fill="#3E479B"/>
<path opacity="0.58" d="M44.2966 172.785C45.291 172.785 46.0971 171.979 46.0971 170.985C46.0971 169.991 45.291 169.186 44.2966 169.186C43.3022 169.186 42.4961 169.991 42.4961 170.985C42.4961 171.979 43.3022 172.785 44.2966 172.785Z" fill="#3E479B"/>
<path opacity="0.58" d="M152.76 180.5C153.533 180.5 154.16 179.873 154.16 179.1C154.16 178.327 153.533 177.7 152.76 177.7C151.986 177.7 151.359 178.327 151.359 179.1C151.359 179.873 151.986 180.5 152.76 180.5Z" fill="#EF929C"/>
<path opacity="0.58" d="M14.984 10.4543C15.3154 10.4543 15.5841 10.1857 15.5841 9.85442C15.5841 9.5231 15.3154 9.25452 14.984 9.25452C14.6525 9.25452 14.3838 9.5231 14.3838 9.85442C14.3838 10.1857 14.6525 10.4543 14.984 10.4543Z" fill="#3E479B"/>
<path opacity="0.58" d="M179.421 26.8015C179.962 25.7384 179.538 24.4382 178.475 23.8974C177.411 23.3566 176.11 23.7801 175.569 24.8432C175.028 25.9064 175.452 27.2066 176.516 27.7473C177.579 28.2881 178.88 27.8646 179.421 26.8015Z" fill="#EF929C"/>
<path opacity="0.58" d="M21.8267 4.26341C21.7921 4.42762 21.7095 4.57787 21.5894 4.69514C21.4693 4.8124 21.3171 4.8914 21.152 4.92212C20.9869 4.95285 20.8165 4.93393 20.6622 4.86775C20.5079 4.80157 20.3767 4.69112 20.2853 4.55037C20.1938 4.40962 20.1462 4.24492 20.1485 4.07711C20.1508 3.90931 20.2028 3.74595 20.298 3.60773C20.3933 3.46951 20.5274 3.36265 20.6834 3.30067C20.8394 3.23869 21.0103 3.22438 21.1745 3.25956C21.394 3.3066 21.5858 3.43866 21.7081 3.62681C21.8303 3.81497 21.873 4.04388 21.8267 4.26341Z" fill="#EF929C"/>
<path opacity="0.58" d="M107.699 1.54385C107.664 1.7077 107.58 1.85741 107.46 1.97406C107.34 2.09071 107.187 2.16907 107.022 2.19923C106.857 2.22939 106.687 2.21001 106.533 2.14352C106.379 2.07703 106.249 1.96643 106.157 1.82569C106.066 1.68495 106.019 1.52038 106.022 1.35278C106.024 1.18518 106.076 1.02207 106.171 0.884054C106.266 0.746039 106.4 0.639315 106.556 0.577366C106.712 0.515417 106.883 0.501022 107.047 0.536002C107.156 0.559268 107.259 0.60381 107.351 0.667079C107.443 0.730347 107.521 0.8111 107.582 0.904714C107.643 0.998328 107.684 1.10297 107.704 1.21264C107.724 1.32231 107.722 1.43486 107.699 1.54385Z" fill="#EF929C"/>
<path opacity="0.58" d="M167.264 28.1396C167.246 28.2339 167.21 28.3237 167.157 28.4037C167.104 28.4837 167.035 28.5523 166.955 28.6055C166.875 28.6586 166.785 28.6953 166.691 28.7133C166.597 28.7313 166.5 28.7302 166.406 28.7102C166.312 28.6902 166.223 28.6517 166.144 28.5968C166.066 28.542 165.999 28.4719 165.947 28.3908C165.896 28.3097 165.862 28.2192 165.846 28.1245C165.83 28.0299 165.833 27.933 165.855 27.8397C165.873 27.7454 165.91 27.6556 165.963 27.5756C166.016 27.4956 166.084 27.427 166.164 27.3739C166.244 27.3207 166.334 27.2841 166.428 27.2661C166.522 27.2481 166.619 27.2491 166.713 27.2691C166.807 27.2891 166.896 27.3277 166.975 27.3825C167.054 27.4374 167.121 27.5074 167.172 27.5885C167.223 27.6696 167.258 27.7601 167.274 27.8548C167.289 27.9494 167.286 28.0463 167.264 28.1396Z" fill="#3E479B"/>
<path opacity="0.58" d="M8.20247 152.284C8.17237 152.424 8.10167 152.551 7.99931 152.65C7.89695 152.749 7.76752 152.815 7.6274 152.841C7.48727 152.866 7.34273 152.849 7.21206 152.793C7.08139 152.736 6.97044 152.642 6.89326 152.522C6.81607 152.403 6.77611 152.263 6.77842 152.121C6.78072 151.978 6.82521 151.84 6.90623 151.723C6.98726 151.606 7.1012 151.515 7.23364 151.463C7.36608 151.41 7.51108 151.399 7.65031 151.429C7.7428 151.448 7.83046 151.486 7.90827 151.54C7.98608 151.594 8.05252 151.663 8.1038 151.742C8.15508 151.822 8.19018 151.91 8.20711 152.003C8.22404 152.096 8.22246 152.192 8.20247 152.284Z" fill="#3E479B"/>
<g opacity="0.66">
<path d="M140.248 76.8841H137.127C136.497 76.8841 135.892 76.6339 135.446 76.1883C135.001 75.7428 134.75 75.1386 134.75 74.5085V70.9971C134.747 70.6743 134.645 70.3602 134.459 70.0961C134.274 69.832 134.013 69.6302 133.71 69.5173C133.342 69.3813 132.974 69.2293 132.618 69.0654C132.323 68.9288 131.994 68.8851 131.673 68.9401C131.353 68.9951 131.057 69.1462 130.825 69.3733L128.34 71.8569C127.892 72.2978 127.287 72.5448 126.658 72.5448C126.029 72.5448 125.424 72.2978 124.975 71.8569L122.767 69.6493C122.326 69.2005 122.079 68.5966 122.079 67.9675C122.079 67.3385 122.326 66.7345 122.767 66.2858L125.252 63.8022C125.48 63.5697 125.631 63.2733 125.686 62.9524C125.741 62.6316 125.697 62.3016 125.56 62.0065C125.396 61.6505 125.244 61.2826 125.108 60.9146C124.994 60.613 124.792 60.3527 124.528 60.1679C124.263 59.983 123.95 59.8823 123.627 59.8788H120.114C119.485 59.8736 118.883 59.6217 118.438 59.1775C117.993 58.7332 117.74 58.132 117.733 57.5032V54.3796C117.74 53.7508 117.993 53.1496 118.438 52.7053C118.883 52.2611 119.485 52.0092 120.114 52.004H123.627C123.95 52.0005 124.263 51.8998 124.528 51.7149C124.792 51.5301 124.994 51.2698 125.108 50.9682C125.244 50.6002 125.396 50.2363 125.56 49.8763C125.697 49.5812 125.741 49.2512 125.686 48.9304C125.631 48.6095 125.48 48.3131 125.252 48.0806L122.767 45.597C122.327 45.1484 122.081 44.5454 122.081 43.9173C122.081 43.2892 122.327 42.6861 122.767 42.2375L124.975 40.0299C125.424 39.589 126.029 39.342 126.658 39.342C127.287 39.342 127.892 39.589 128.34 40.0299L130.825 42.5135C131.057 42.7406 131.353 42.8917 131.673 42.9467C131.994 43.0017 132.323 42.958 132.618 42.8214C132.978 42.6535 133.346 42.5015 133.714 42.3695C134.016 42.2557 134.277 42.053 134.462 41.7882C134.647 41.5233 134.748 41.2087 134.75 40.8857V37.3743C134.757 36.7462 135.009 36.1455 135.453 35.7014C135.898 35.2572 136.499 35.0049 137.127 34.9987H140.248C140.877 35.0039 141.479 35.2557 141.924 35.7C142.369 36.1443 142.622 36.7455 142.629 37.3743V40.8857C142.631 41.2087 142.732 41.5233 142.917 41.7882C143.102 42.053 143.363 42.2557 143.665 42.3695C144.029 42.5015 144.397 42.6535 144.757 42.8214C145.052 42.9589 145.383 43.0031 145.704 42.9481C146.025 42.893 146.321 42.7414 146.554 42.5135L149.034 40.0299C149.483 39.589 150.088 39.342 150.717 39.342C151.346 39.342 151.95 39.589 152.399 40.0299L154.608 42.2375C155.054 42.683 155.304 43.2873 155.304 43.9173C155.304 44.5473 155.054 45.1515 154.608 45.597L152.123 48.0806C151.895 48.3131 151.744 48.6095 151.689 48.9304C151.634 49.2512 151.678 49.5812 151.815 49.8763C151.979 50.2363 152.135 50.6002 152.267 50.9682C152.381 51.2698 152.583 51.5301 152.847 51.7149C153.112 51.8998 153.425 52.0005 153.748 52.004H157.261C157.89 52.0092 158.492 52.2611 158.937 52.7053C159.382 53.1496 159.635 53.7508 159.642 54.3796V57.5032C159.635 58.132 159.382 58.7332 158.937 59.1775C158.492 59.6217 157.89 59.8736 157.261 59.8788H153.748C153.425 59.8823 153.112 59.983 152.847 60.1679C152.583 60.3527 152.381 60.613 152.267 60.9146C152.135 61.2826 151.983 61.6505 151.815 62.0065C151.678 62.3016 151.634 62.6316 151.689 62.9524C151.744 63.2733 151.895 63.5697 152.123 63.8022L154.608 66.2858C155.049 66.7345 155.296 67.3385 155.296 67.9675C155.296 68.5966 155.049 69.2005 154.608 69.6493L152.399 71.8569C151.95 72.2978 151.346 72.5448 150.717 72.5448C150.088 72.5448 149.483 72.2978 149.034 71.8569L146.554 69.3733C146.321 69.1454 146.025 68.9938 145.704 68.9387C145.383 68.8837 145.052 68.9279 144.757 69.0654C144.401 69.2293 144.033 69.3813 143.665 69.5173C143.363 69.6309 143.103 69.8329 142.918 70.097C142.733 70.361 142.632 70.6748 142.629 70.9971V74.5085C142.622 75.1373 142.369 75.7385 141.924 76.1828C141.479 76.6271 140.877 76.8789 140.248 76.8841ZM131.942 68.1135C132.292 68.115 132.639 68.1914 132.958 68.3375C133.294 68.4934 133.638 68.6374 133.986 68.7654C134.443 68.9349 134.837 69.2392 135.116 69.6377C135.395 70.0363 135.547 70.5104 135.551 70.9971V74.5085C135.55 74.7156 135.59 74.9207 135.669 75.1121C135.749 75.3036 135.865 75.4775 136.011 75.6239C136.158 75.7703 136.332 75.8864 136.523 75.9654C136.715 76.0444 136.92 76.0848 137.127 76.0843H140.248C140.455 76.0848 140.661 76.0444 140.852 75.9655C141.044 75.8865 141.218 75.7705 141.365 75.6242C141.512 75.4778 141.629 75.3039 141.708 75.1125C141.787 74.921 141.828 74.7158 141.828 74.5085V70.9971C141.832 70.5109 141.983 70.0371 142.261 69.6386C142.54 69.2401 142.933 68.9356 143.389 68.7654C143.737 68.6374 144.085 68.4934 144.417 68.3375C144.861 68.1307 145.358 68.0646 145.841 68.1483C146.324 68.2319 146.769 68.4612 147.118 68.8054L149.603 71.289C149.901 71.5797 150.302 71.7424 150.719 71.7424C151.136 71.7424 151.536 71.5797 151.835 71.289L154.044 69.0814C154.334 68.7829 154.496 68.3834 154.496 67.9675C154.496 67.5517 154.334 67.1522 154.044 66.8537L151.559 64.3701C151.215 64.0216 150.985 63.5762 150.902 63.0936C150.818 62.6111 150.884 62.1145 151.091 61.6705C151.247 61.3346 151.391 60.9866 151.515 60.6387C151.685 60.1832 151.99 59.7902 152.389 59.5116C152.787 59.2331 153.261 59.0822 153.748 59.0789H157.261C157.678 59.0737 158.076 58.9062 158.371 58.6119C158.666 58.3176 158.835 57.9198 158.841 57.5032V54.3796C158.835 53.963 158.666 53.5652 158.371 53.2709C158.076 52.9766 157.678 52.809 157.261 52.8039H153.748C153.261 52.8006 152.787 52.6497 152.389 52.3712C151.99 52.0926 151.685 51.6996 151.515 51.2441C151.391 50.8962 151.247 50.5522 151.091 50.2123C150.885 49.7688 150.819 49.273 150.903 48.7913C150.987 48.3095 151.216 47.8648 151.559 47.5167L154.044 45.0331C154.335 44.7344 154.498 44.3341 154.498 43.9173C154.498 43.5005 154.335 43.1001 154.044 42.8014L151.835 40.5938C151.536 40.3031 151.136 40.1404 150.719 40.1404C150.302 40.1404 149.901 40.3031 149.603 40.5938L147.118 43.0774C146.769 43.4216 146.324 43.6509 145.841 43.7345C145.358 43.8182 144.861 43.7521 144.417 43.5453C144.081 43.3894 143.733 43.2454 143.389 43.1174C142.933 42.9472 142.54 42.6427 142.261 42.2442C141.983 41.8457 141.832 41.3719 141.828 40.8857V37.3743C141.822 36.9576 141.654 36.5598 141.358 36.2655C141.063 35.9712 140.665 35.8037 140.248 35.7985H137.127C136.709 35.7985 136.308 35.9645 136.012 36.2601C135.717 36.5556 135.551 36.9564 135.551 37.3743V40.8857C135.547 41.3724 135.395 41.8465 135.116 42.2451C134.837 42.6436 134.443 42.9479 133.986 43.1174C133.642 43.2454 133.294 43.3894 132.958 43.5453C132.514 43.7521 132.017 43.8182 131.534 43.7345C131.051 43.6509 130.606 43.4216 130.257 43.0774L127.772 40.5938C127.477 40.2985 127.076 40.1327 126.658 40.1327C126.24 40.1327 125.839 40.2985 125.544 40.5938L123.335 42.8014C123.044 43.1001 122.881 43.5005 122.881 43.9173C122.881 44.3341 123.044 44.7344 123.335 45.0331L125.82 47.5167C126.163 47.8653 126.391 48.3102 126.474 48.7919C126.557 49.2737 126.49 49.7692 126.284 50.2123C126.128 50.5522 125.988 50.8962 125.86 51.2441C125.69 51.6996 125.385 52.0926 124.986 52.3712C124.587 52.6497 124.114 52.8006 123.627 52.8039H120.114C119.697 52.809 119.299 52.9766 119.004 53.2709C118.708 53.5652 118.54 53.963 118.534 54.3796V57.5032C118.54 57.9198 118.708 58.3176 119.004 58.6119C119.299 58.9062 119.697 59.0737 120.114 59.0789H123.627C124.114 59.0822 124.587 59.2331 124.986 59.5116C125.385 59.7902 125.69 60.1832 125.86 60.6387C125.985 60.9896 126.128 61.334 126.288 61.6705C126.495 62.1145 126.561 62.6111 126.477 63.0936C126.393 63.5762 126.164 64.0216 125.82 64.3701L123.335 66.8537C123.04 67.1492 122.874 67.5498 122.874 67.9675C122.874 68.3853 123.04 68.7859 123.335 69.0814L125.544 71.289C125.839 71.5843 126.24 71.7501 126.658 71.7501C127.076 71.7501 127.477 71.5843 127.772 71.289L130.257 68.8054C130.706 68.3626 131.311 68.114 131.942 68.1135ZM138.687 66.9137C136.515 66.9137 134.392 66.2698 132.586 65.0635C130.779 63.8572 129.372 62.1426 128.54 60.1366C127.709 58.1306 127.492 55.9232 127.915 53.7936C128.339 51.6641 129.385 49.7079 130.921 48.1726C132.457 46.6372 134.414 45.5917 136.545 45.1681C138.675 44.7445 140.884 44.9619 142.891 45.7928C144.897 46.6237 146.613 48.0308 147.82 49.8362C149.026 51.6416 149.671 53.7641 149.671 55.9354C149.67 58.8474 148.512 61.64 146.453 63.6999C144.394 65.7598 141.601 66.9185 138.687 66.9217V66.9137ZM138.687 45.757C136.673 45.757 134.705 46.3539 133.03 47.4724C131.356 48.5908 130.05 50.1804 129.28 52.0403C128.509 53.9002 128.307 55.9467 128.7 57.9211C129.093 59.8955 130.063 61.7092 131.487 63.1326C132.911 64.5561 134.726 65.5255 136.701 65.9182C138.676 66.311 140.724 66.1094 142.584 65.339C144.445 64.5687 146.035 63.2641 147.154 61.5902C148.273 59.9164 148.87 57.9485 148.87 55.9354C148.865 53.2383 147.79 50.6533 145.882 48.7468C143.973 46.8404 141.386 45.7682 138.687 45.765V45.757Z" fill="white"/>
<g opacity="0.84">
<path d="M134.435 133.951H130.537C130.088 133.95 129.65 133.812 129.281 133.554C128.913 133.297 128.632 132.933 128.477 132.511C128.333 132.111 128.169 131.712 127.993 131.336C127.8 130.927 127.737 130.468 127.814 130.022C127.89 129.577 128.102 129.165 128.421 128.844L131.178 126.092C131.589 125.681 131.82 125.123 131.82 124.541C131.82 123.959 131.589 123.401 131.178 122.989L128.729 120.541C128.317 120.13 127.759 119.899 127.176 119.899C126.594 119.899 126.036 120.13 125.624 120.541L122.871 123.297C122.55 123.615 122.138 123.827 121.692 123.904C121.246 123.98 120.788 123.918 120.378 123.725C119.978 123.549 119.602 123.385 119.202 123.237C118.78 123.084 118.415 122.804 118.157 122.437C117.899 122.069 117.761 121.63 117.762 121.181V117.286C117.762 116.998 117.705 116.712 117.594 116.446C117.484 116.18 117.322 115.938 117.118 115.735C116.914 115.531 116.672 115.37 116.405 115.26C116.139 115.15 115.853 115.094 115.565 115.094H112.104C111.523 115.094 110.965 115.325 110.554 115.736C110.142 116.147 109.911 116.705 109.911 117.286V121.181C109.911 121.63 109.773 122.068 109.516 122.436C109.258 122.804 108.893 123.083 108.471 123.237C108.071 123.385 107.671 123.549 107.291 123.725C106.881 123.918 106.423 123.98 105.977 123.904C105.531 123.827 105.119 123.615 104.798 123.297L102.045 120.541C101.633 120.13 101.075 119.899 100.493 119.899C99.9105 119.899 99.3522 120.13 98.9403 120.541L96.4916 122.989C96.0801 123.401 95.849 123.959 95.849 124.541C95.849 125.123 96.0801 125.681 96.4916 126.092L99.2484 128.844C99.5669 129.165 99.7789 129.577 99.8554 130.022C99.932 130.468 99.8696 130.927 99.6765 131.336C99.5004 131.736 99.3364 132.111 99.1924 132.511C99.0371 132.933 98.7564 133.297 98.388 133.554C98.0196 133.812 97.5812 133.95 97.1318 133.951H93.2346C92.9464 133.951 92.6609 134.008 92.3946 134.118C92.1283 134.229 91.8864 134.391 91.6828 134.595C91.4791 134.798 91.3177 135.041 91.2077 135.307C91.0978 135.573 91.0415 135.859 91.042 136.147V139.606C91.042 140.188 91.273 140.745 91.6842 141.156C92.0954 141.567 92.6531 141.798 93.2346 141.798H97.1318C97.5812 141.799 98.0196 141.937 98.388 142.195C98.7564 142.452 99.0371 142.816 99.1924 143.238C99.3364 143.638 99.5004 144.038 99.6765 144.418C99.8696 144.827 99.932 145.285 99.8554 145.731C99.7789 146.177 99.5669 146.588 99.2484 146.909L96.4916 149.661C96.288 149.864 96.1265 150.106 96.0163 150.372C95.9061 150.638 95.8493 150.923 95.8493 151.21C95.8493 151.498 95.9061 151.783 96.0163 152.049C96.1265 152.315 96.288 152.557 96.4916 152.76L98.9403 155.212C99.3522 155.623 99.9105 155.854 100.493 155.854C101.075 155.854 101.633 155.623 102.045 155.212L104.798 152.456C105.119 152.138 105.531 151.926 105.976 151.849C106.422 151.772 106.881 151.833 107.291 152.024C107.691 152.204 108.067 152.368 108.471 152.512C108.893 152.667 109.257 152.948 109.514 153.316C109.772 153.685 109.911 154.123 109.911 154.572V158.467C109.911 158.755 109.968 159.04 110.078 159.306C110.189 159.572 110.35 159.814 110.554 160.017C110.757 160.221 110.999 160.382 111.265 160.492C111.531 160.602 111.816 160.659 112.104 160.659H115.565C115.853 160.66 116.139 160.603 116.405 160.493C116.672 160.383 116.914 160.222 117.118 160.019C117.322 159.815 117.484 159.573 117.594 159.307C117.705 159.041 117.762 158.756 117.762 158.467V154.572C117.762 154.122 117.9 153.684 118.157 153.315C118.415 152.947 118.78 152.667 119.202 152.512C119.602 152.368 120.002 152.204 120.378 152.024C120.788 151.833 121.247 151.772 121.693 151.849C122.138 151.926 122.55 152.138 122.871 152.456L125.624 155.212C126.036 155.623 126.594 155.854 127.176 155.854C127.759 155.854 128.317 155.623 128.729 155.212L131.178 152.76C131.381 152.557 131.543 152.315 131.653 152.049C131.763 151.783 131.82 151.498 131.82 151.21C131.82 150.923 131.763 150.638 131.653 150.372C131.543 150.106 131.381 149.864 131.178 149.661L128.421 146.909C128.102 146.588 127.89 146.177 127.814 145.731C127.737 145.285 127.8 144.827 127.993 144.418C128.169 144.018 128.333 143.638 128.477 143.238C128.632 142.816 128.913 142.452 129.281 142.195C129.65 141.937 130.088 141.799 130.537 141.798H134.435C135.016 141.798 135.574 141.567 135.985 141.156C136.396 140.745 136.627 140.188 136.627 139.606V136.147C136.628 135.859 136.571 135.573 136.461 135.307C136.351 135.041 136.19 134.798 135.986 134.595C135.783 134.391 135.541 134.229 135.275 134.118C135.008 134.008 134.723 133.951 134.435 133.951ZM113.837 149.609C111.515 149.61 109.245 148.922 107.313 147.633C105.382 146.344 103.877 144.512 102.988 142.368C102.099 140.224 101.866 137.864 102.318 135.588C102.771 133.311 103.889 131.22 105.53 129.579C107.172 127.937 109.264 126.819 111.541 126.366C113.818 125.913 116.179 126.145 118.324 127.033C120.469 127.921 122.303 129.425 123.593 131.355C124.883 133.285 125.572 135.554 125.572 137.875C125.572 140.986 124.336 143.97 122.135 146.17C119.934 148.371 116.949 149.608 113.837 149.609Z" fill="white"/>
</g>
<path d="M73.4971 157.28H70.8724C70.3255 157.278 69.8014 157.061 69.4151 156.674C69.0287 156.287 68.8118 155.762 68.8118 155.216V152.268C68.8151 152.007 68.7373 151.751 68.5889 151.537C68.4405 151.322 68.229 151.158 67.9835 151.069C67.6714 150.951 67.3633 150.818 67.0593 150.669C66.823 150.559 66.5589 150.524 66.3023 150.568C66.0456 150.613 65.8086 150.734 65.6228 150.917L63.5382 153C63.3468 153.192 63.1195 153.344 62.8693 153.448C62.619 153.551 62.3507 153.605 62.0798 153.605C61.8089 153.605 61.5406 153.551 61.2904 153.448C61.0401 153.344 60.8128 153.192 60.6214 153L58.7649 151.148C58.5731 150.957 58.421 150.73 58.3172 150.48C58.2134 150.23 58.16 149.962 58.16 149.691C58.16 149.42 58.2134 149.152 58.3172 148.902C58.421 148.651 58.5731 148.424 58.7649 148.233L60.8535 146.145C61.0363 145.96 61.1578 145.723 61.2015 145.466C61.2451 145.209 61.2088 144.945 61.0975 144.709C60.9575 144.41 60.8295 144.102 60.6974 143.79C60.6069 143.545 60.443 143.334 60.2282 143.186C60.0134 143.038 59.758 142.96 59.4971 142.962H56.5762C56.0293 142.961 55.5052 142.743 55.1189 142.356C54.7326 141.969 54.5156 141.445 54.5156 140.898V138.322C54.5156 137.776 54.7326 137.252 55.1189 136.865C55.5052 136.478 56.0293 136.26 56.5762 136.259H59.5291C59.7901 136.261 60.0454 136.183 60.2602 136.035C60.475 135.886 60.6389 135.676 60.7294 135.431C60.8455 135.119 60.9735 134.807 61.1295 134.511C61.2408 134.276 61.2771 134.012 61.2335 133.755C61.1898 133.498 61.0683 133.261 60.8855 133.075L58.7969 130.988C58.6051 130.796 58.453 130.569 58.3492 130.319C58.2454 130.069 58.192 129.801 58.192 129.53C58.192 129.259 58.2454 128.991 58.3492 128.741C58.453 128.491 58.6051 128.263 58.7969 128.072L60.6534 126.22C61.0405 125.834 61.565 125.617 62.1118 125.617C62.6587 125.617 63.1832 125.834 63.5702 126.22L65.6548 128.304C65.84 128.488 66.0771 128.61 66.334 128.654C66.5909 128.698 66.8553 128.663 67.0913 128.552C67.3927 128.411 67.7008 128.277 68.0155 128.152C68.261 128.063 68.4725 127.899 68.6209 127.684C68.7693 127.469 68.8472 127.213 68.8438 126.952V124.005C68.8438 123.458 69.0607 122.934 69.4471 122.547C69.8334 122.16 70.3575 121.942 70.9044 121.941H73.5291C74.076 121.942 74.6001 122.16 74.9864 122.547C75.3728 122.934 75.5897 123.458 75.5897 124.005V126.952C75.5863 127.213 75.6642 127.469 75.8126 127.684C75.961 127.899 76.1725 128.063 76.418 128.152C76.7354 128.269 77.0435 128.403 77.3422 128.552C77.5783 128.662 77.8426 128.697 78.0993 128.653C78.3561 128.609 78.5932 128.487 78.7786 128.304L80.8632 126.22C81.2503 125.834 81.7748 125.617 82.3217 125.617C82.8685 125.617 83.393 125.834 83.7801 126.22L85.6366 128.072C85.8284 128.263 85.9805 128.491 86.0843 128.741C86.1881 128.991 86.2415 129.259 86.2415 129.53C86.2415 129.801 86.1881 130.069 86.0843 130.319C85.9805 130.569 85.8284 130.796 85.6366 130.988L83.548 133.075C83.3652 133.261 83.2437 133.498 83.2 133.755C83.1564 134.012 83.1927 134.276 83.304 134.511C83.44 134.807 83.568 135.119 83.6841 135.431C83.7746 135.676 83.9385 135.886 84.1533 136.035C84.3681 136.183 84.6234 136.261 84.8844 136.259H87.7853C88.3321 136.26 88.8562 136.478 89.2426 136.865C89.6289 137.252 89.8458 137.776 89.8458 138.322V140.942C89.8458 141.489 89.6289 142.013 89.2426 142.4C88.8562 142.787 88.3321 143.005 87.7853 143.006H84.8324C84.5714 143.004 84.3161 143.082 84.1013 143.23C83.8865 143.378 83.7226 143.589 83.632 143.834C83.52 144.146 83.388 144.454 83.2519 144.753C83.1406 144.989 83.1044 145.253 83.148 145.51C83.1917 145.767 83.3131 146.004 83.496 146.189L85.5846 148.277C85.7764 148.468 85.9285 148.695 86.0323 148.946C86.1361 149.196 86.1895 149.464 86.1895 149.735C86.1895 150.006 86.1361 150.274 86.0323 150.524C85.9285 150.774 85.7764 151.001 85.5846 151.192L83.7281 153.044C83.5367 153.236 83.3094 153.388 83.0591 153.492C82.8088 153.595 82.5406 153.649 82.2697 153.649C81.9987 153.649 81.7305 153.595 81.4802 153.492C81.23 153.388 81.0026 153.236 80.8112 153.044L78.7266 150.961C78.5408 150.778 78.3038 150.657 78.0472 150.612C77.7905 150.568 77.5265 150.603 77.2902 150.713C76.9861 150.853 76.674 150.981 76.3659 151.113C76.1205 151.202 75.909 151.366 75.7606 151.581C75.6122 151.795 75.5343 152.051 75.5377 152.312V155.26C75.5263 155.795 75.3071 156.306 74.9263 156.682C74.5455 157.059 74.033 157.273 73.4971 157.28ZM66.5191 149.781C66.8221 149.781 67.1213 149.848 67.3953 149.977C67.6794 150.105 67.9675 150.225 68.2596 150.333C68.6554 150.479 68.997 150.743 69.2387 151.089C69.4803 151.435 69.6106 151.846 69.612 152.268V155.216C69.612 155.55 69.7446 155.871 69.9809 156.108C70.2171 156.345 70.5377 156.479 70.8724 156.48H73.4971C73.8317 156.479 74.1523 156.345 74.3886 156.108C74.6248 155.871 74.7575 155.55 74.7575 155.216V152.268C74.7589 151.846 74.8891 151.435 75.1308 151.089C75.3725 150.743 75.7141 150.479 76.1099 150.333C76.398 150.229 76.69 150.109 76.9741 149.977C77.3578 149.796 77.7875 149.738 78.2053 149.81C78.6231 149.881 79.009 150.079 79.3108 150.377L81.3994 152.464C81.6398 152.694 81.9594 152.822 82.2917 152.822C82.624 152.822 82.9435 152.694 83.1839 152.464L85.0365 150.609C85.1543 150.492 85.2478 150.353 85.3116 150.2C85.3755 150.047 85.4083 149.883 85.4083 149.717C85.4083 149.551 85.3755 149.387 85.3116 149.234C85.2478 149.081 85.1543 148.942 85.0365 148.825L82.9519 146.741C82.6544 146.439 82.4566 146.052 82.3851 145.634C82.3136 145.216 82.3717 144.786 82.5517 144.402C82.6838 144.122 82.8038 143.834 82.9078 143.542C83.055 143.146 83.3191 142.805 83.6651 142.564C84.0111 142.322 84.4224 142.192 84.8444 142.19H87.7853C88.1199 142.189 88.4405 142.055 88.6767 141.818C88.913 141.581 89.0456 141.261 89.0456 140.926V138.322C89.0456 137.988 88.913 137.667 88.6767 137.43C88.4405 137.193 88.1199 137.06 87.7853 137.059H84.8324C84.4102 137.058 83.9983 136.928 83.6521 136.686C83.3059 136.445 83.042 136.103 82.8958 135.707C82.7918 135.415 82.6718 135.127 82.5397 134.847C82.3608 134.463 82.3033 134.033 82.3748 133.615C82.4463 133.197 82.6434 132.811 82.9398 132.507L85.0245 130.424C85.1423 130.307 85.2358 130.168 85.2996 130.015C85.3635 129.862 85.3963 129.698 85.3963 129.532C85.3963 129.366 85.3635 129.202 85.2996 129.049C85.2358 128.896 85.1423 128.757 85.0245 128.64L83.1719 126.784C82.9349 126.548 82.6141 126.416 82.2797 126.416C81.9452 126.416 81.6244 126.548 81.3874 126.784L79.2988 128.872C78.997 129.169 78.6111 129.367 78.1933 129.439C77.7755 129.51 77.3458 129.452 76.9621 129.272C76.682 129.144 76.394 129.024 76.0979 128.916C75.7017 128.77 75.3598 128.506 75.1181 128.16C74.8763 127.814 74.7463 127.402 74.7455 126.98V124.033C74.7455 123.698 74.6128 123.377 74.3766 123.14C74.1403 122.904 73.8197 122.77 73.4851 122.769H70.8604C70.5257 122.77 70.2051 122.904 69.9689 123.14C69.7326 123.377 69.6 123.698 69.6 124.033V126.98C69.5992 127.402 69.4691 127.814 69.2274 128.16C68.9856 128.506 68.6437 128.77 68.2476 128.916C67.9515 129.024 67.6634 129.144 67.3833 129.272C66.9997 129.452 66.57 129.51 66.1522 129.439C65.7343 129.367 65.3485 129.169 65.0467 128.872L62.9781 126.772C62.7411 126.536 62.4203 126.404 62.0858 126.404C61.7514 126.404 61.4305 126.536 61.1936 126.772L59.341 128.628C59.2232 128.745 59.1297 128.884 59.0658 129.037C59.002 129.19 58.9691 129.354 58.9691 129.52C58.9691 129.686 59.002 129.85 59.0658 130.003C59.1297 130.156 59.2232 130.295 59.341 130.412L61.4256 132.495C61.7221 132.799 61.9192 133.185 61.9907 133.603C62.0622 134.021 62.0046 134.451 61.8257 134.835C61.6937 135.115 61.5737 135.403 61.4696 135.695C61.3234 136.091 61.0595 136.433 60.7134 136.674C60.3672 136.916 59.9553 137.046 59.5331 137.047H56.5762C56.2416 137.048 55.921 137.181 55.6848 137.418C55.4485 137.655 55.3159 137.976 55.3159 138.31V140.93C55.3159 141.265 55.4485 141.585 55.6848 141.822C55.921 142.059 56.2416 142.193 56.5762 142.194H59.5291C59.951 142.196 60.3624 142.326 60.7084 142.568C61.0543 142.809 61.3185 143.15 61.4656 143.546C61.5697 143.838 61.6897 144.126 61.8217 144.406C62.0006 144.79 62.0582 145.22 61.9867 145.638C61.9152 146.056 61.7181 146.442 61.4216 146.745L59.337 148.829C59.2192 148.946 59.1257 149.085 59.0618 149.238C58.998 149.391 58.9651 149.555 58.9651 149.721C58.9651 149.887 58.998 150.051 59.0618 150.204C59.1257 150.357 59.2192 150.496 59.337 150.613L61.1896 152.468C61.43 152.698 61.7495 152.826 62.0818 152.826C62.4141 152.826 62.7337 152.698 62.9741 152.468L65.0627 150.381C65.4495 149.996 65.9733 149.78 66.5191 149.781ZM72.1807 148.905C70.343 148.905 68.5466 148.36 67.0187 147.339C65.4908 146.319 64.3 144.868 63.5969 143.171C62.8938 141.474 62.71 139.607 63.0689 137.805C63.4277 136.004 64.3129 134.349 65.6126 133.05C66.9124 131.752 68.5682 130.868 70.3707 130.51C72.1731 130.152 74.0413 130.336 75.7389 131.04C77.4365 131.743 78.8872 132.934 79.9076 134.462C80.928 135.99 81.4722 137.785 81.4714 139.622C81.4682 142.084 80.4883 144.444 78.7465 146.184C77.0047 147.924 74.6434 148.903 72.1807 148.905ZM72.1807 131.124C70.5015 131.124 68.8599 131.621 67.4637 132.554C66.0674 133.486 64.9792 134.812 64.3366 136.363C63.694 137.913 63.5258 139.62 63.8534 141.266C64.181 142.912 64.9897 144.424 66.1771 145.611C67.3645 146.798 68.8773 147.606 70.5243 147.934C72.1713 148.261 73.8785 148.093 75.4299 147.451C76.9813 146.809 78.3073 145.721 79.2403 144.325C80.1732 142.93 80.6712 141.289 80.6712 139.61C80.6691 137.36 79.7739 135.203 78.1821 133.612C76.5902 132.021 74.4319 131.126 72.1807 131.124Z" fill="white"/>
</g>
<g opacity="0.81">
<path d="M158.378 113.894H153.176C153.07 113.894 152.969 113.852 152.894 113.777C152.819 113.702 152.776 113.601 152.776 113.495C152.776 113.388 152.819 113.287 152.894 113.212C152.969 113.137 153.07 113.095 153.176 113.095H158.378C158.484 113.095 158.586 113.137 158.661 113.212C158.736 113.287 158.778 113.388 158.778 113.495C158.778 113.601 158.736 113.702 158.661 113.777C158.586 113.852 158.484 113.894 158.378 113.894Z" fill="white"/>
<path d="M158.378 122.485H153.176C153.07 122.485 152.969 122.443 152.894 122.368C152.819 122.293 152.776 122.191 152.776 122.085C152.776 121.979 152.819 121.877 152.894 121.802C152.969 121.727 153.07 121.685 153.176 121.685H158.378C158.484 121.685 158.586 121.727 158.661 121.802C158.736 121.877 158.778 121.979 158.778 122.085C158.778 122.191 158.736 122.293 158.661 122.368C158.586 122.443 158.484 122.485 158.378 122.485Z" fill="white"/>
<path d="M162.067 131.164H130.35C130.063 131.163 129.787 131.048 129.584 130.845C129.381 130.642 129.267 130.367 129.266 130.08V103.576C129.266 103.289 129.38 103.013 129.583 102.81C129.787 102.606 130.062 102.492 130.35 102.492H162.067C162.355 102.492 162.63 102.606 162.834 102.81C163.037 103.013 163.151 103.289 163.151 103.576V130.08C163.15 130.367 163.036 130.642 162.833 130.845C162.63 131.048 162.354 131.163 162.067 131.164ZM130.35 103.292C130.275 103.292 130.202 103.322 130.149 103.375C130.096 103.428 130.066 103.501 130.066 103.576V130.08C130.066 130.155 130.096 130.227 130.149 130.281C130.202 130.334 130.275 130.364 130.35 130.364H162.067C162.142 130.364 162.215 130.334 162.268 130.281C162.321 130.227 162.351 130.155 162.351 130.08V103.576C162.351 103.501 162.321 103.428 162.268 103.375C162.215 103.322 162.142 103.292 162.067 103.292H130.35Z" fill="white"/>
<path opacity="0.66" d="M162.067 131.164H130.35C130.063 131.163 129.787 131.048 129.584 130.845C129.381 130.642 129.267 130.367 129.266 130.08V103.576C129.266 103.289 129.38 103.013 129.583 102.81C129.787 102.606 130.062 102.492 130.35 102.492H162.067C162.355 102.492 162.63 102.606 162.834 102.81C163.037 103.013 163.151 103.289 163.151 103.576V130.08C163.15 130.367 163.036 130.642 162.833 130.845C162.63 131.048 162.354 131.163 162.067 131.164ZM130.35 103.292C130.275 103.292 130.202 103.322 130.149 103.375C130.096 103.428 130.066 103.501 130.066 103.576V130.08C130.066 130.155 130.096 130.227 130.149 130.281C130.202 130.334 130.275 130.364 130.35 130.364H162.067C162.142 130.364 162.215 130.334 162.268 130.281C162.321 130.227 162.351 130.155 162.351 130.08V103.576C162.351 103.501 162.321 103.428 162.268 103.375C162.215 103.322 162.142 103.292 162.067 103.292H130.35Z" fill="white"/>
<path d="M158.378 109.727H133.523C133.417 109.727 133.315 109.685 133.24 109.61C133.165 109.535 133.123 109.433 133.123 109.327C133.123 109.221 133.165 109.119 133.24 109.044C133.315 108.969 133.417 108.927 133.523 108.927H158.378C158.484 108.927 158.586 108.969 158.661 109.044C158.736 109.119 158.778 109.221 158.778 109.327C158.778 109.433 158.736 109.535 158.661 109.61C158.586 109.685 158.484 109.727 158.378 109.727Z" fill="white"/>
<path d="M158.378 118.066H133.523C133.417 118.066 133.315 118.024 133.24 117.949C133.165 117.874 133.123 117.772 133.123 117.666C133.123 117.56 133.165 117.458 133.24 117.383C133.315 117.308 133.417 117.266 133.523 117.266H158.378C158.484 117.266 158.586 117.308 158.661 117.383C158.736 117.458 158.778 117.56 158.778 117.666C158.778 117.772 158.736 117.874 158.661 117.949C158.586 118.024 158.484 118.066 158.378 118.066Z" fill="white"/>
<path d="M146.923 113.894H133.523C133.417 113.894 133.315 113.852 133.24 113.777C133.165 113.702 133.123 113.601 133.123 113.495C133.123 113.388 133.165 113.287 133.24 113.212C133.315 113.137 133.417 113.095 133.523 113.095H146.923C147.029 113.095 147.131 113.137 147.206 113.212C147.281 113.287 147.323 113.388 147.323 113.495C147.323 113.601 147.281 113.702 147.206 113.777C147.131 113.852 147.029 113.894 146.923 113.894Z" fill="white"/>
<path d="M146.923 122.485H133.523C133.417 122.485 133.315 122.443 133.24 122.368C133.165 122.293 133.123 122.191 133.123 122.085C133.123 121.979 133.165 121.877 133.24 121.802C133.315 121.727 133.417 121.685 133.523 121.685H146.923C147.029 121.685 147.131 121.727 147.206 121.802C147.281 121.877 147.323 121.979 147.323 122.085C147.323 122.191 147.281 122.293 147.206 122.368C147.131 122.443 147.029 122.485 146.923 122.485Z" fill="white"/>
<path d="M142.562 126.469H133.523C133.417 126.469 133.315 126.426 133.24 126.351C133.165 126.276 133.123 126.175 133.123 126.069C133.123 125.963 133.165 125.861 133.24 125.786C133.315 125.711 133.417 125.669 133.523 125.669H142.562C142.668 125.669 142.77 125.711 142.845 125.786C142.92 125.861 142.962 125.963 142.962 126.069C142.962 126.175 142.92 126.276 142.845 126.351C142.77 126.426 142.668 126.469 142.562 126.469Z" fill="white"/>
</g>
<g opacity="0.81">
<path d="M56.896 70.1571H50.9743C50.8682 70.1571 50.7664 70.1149 50.6914 70.0399C50.6164 69.9649 50.5742 69.8632 50.5742 69.7571C50.5742 69.651 50.6164 69.5493 50.6914 69.4743C50.7664 69.3993 50.8682 69.3572 50.9743 69.3572H56.896C57.0022 69.3572 57.1039 69.3993 57.179 69.4743C57.254 69.5493 57.2962 69.651 57.2962 69.7571C57.2962 69.8632 57.254 69.9649 57.179 70.0399C57.1039 70.1149 57.0022 70.1571 56.896 70.1571Z" fill="white"/>
<path d="M56.896 79.9036H50.9743C50.8682 79.9036 50.7664 79.8615 50.6914 79.7865C50.6164 79.7115 50.5742 79.6098 50.5742 79.5037C50.5742 79.3976 50.6164 79.2959 50.6914 79.2209C50.7664 79.1459 50.8682 79.1038 50.9743 79.1038H56.896C57.0022 79.1038 57.1039 79.1459 57.179 79.2209C57.254 79.2959 57.2962 79.3976 57.2962 79.5037C57.2962 79.6098 57.254 79.7115 57.179 79.7865C57.1039 79.8615 57.0022 79.9036 56.896 79.9036Z" fill="white"/>
<path d="M61.1697 89.75H25.0073C24.7193 89.75 24.4431 89.6359 24.2391 89.4328C24.0351 89.2296 23.92 88.954 23.9189 88.6662V58.4109C23.9189 58.2682 23.9471 58.1269 24.0019 57.9952C24.0566 57.8634 24.1368 57.7438 24.2379 57.6431C24.3391 57.5424 24.4591 57.4626 24.5911 57.4084C24.7231 57.3542 24.8645 57.3265 25.0073 57.327H61.1697C61.3125 57.3265 61.4539 57.3542 61.5859 57.4084C61.7179 57.4626 61.8379 57.5424 61.939 57.6431C62.0401 57.7438 62.1204 57.8634 62.1751 57.9952C62.2299 58.1269 62.258 58.2682 62.258 58.4109V88.6662C62.257 88.954 62.1419 89.2296 61.9379 89.4328C61.7339 89.6359 61.4577 89.75 61.1697 89.75ZM25.0073 58.1269C24.9696 58.1264 24.9322 58.1333 24.8973 58.1474C24.8624 58.1614 24.8306 58.1822 24.8038 58.2087C24.777 58.2351 24.7557 58.2666 24.7412 58.3013C24.7267 58.336 24.7192 58.3732 24.7192 58.4109V88.6662C24.7192 88.7038 24.7267 88.741 24.7412 88.7758C24.7557 88.8105 24.777 88.842 24.8038 88.8684C24.8306 88.8948 24.8624 88.9156 24.8973 88.9297C24.9322 88.9437 24.9696 88.9506 25.0073 88.9501H61.1697C61.2074 88.9506 61.2447 88.9437 61.2797 88.9297C61.3146 88.9156 61.3464 88.8948 61.3732 88.8684C61.4 88.842 61.4213 88.8105 61.4358 88.7758C61.4503 88.741 61.4578 88.7038 61.4578 88.6662V58.4109C61.4578 58.3732 61.4503 58.336 61.4358 58.3013C61.4213 58.2666 61.4 58.2351 61.3732 58.2087C61.3464 58.1822 61.3146 58.1614 61.2797 58.1474C61.2447 58.1333 61.2074 58.1264 61.1697 58.1269H25.0073Z" fill="white"/>
<path opacity="0.66" d="M61.1697 89.75H25.0073C24.7193 89.75 24.4431 89.6359 24.2391 89.4328C24.0351 89.2296 23.92 88.954 23.9189 88.6662V58.4109C23.9189 58.2682 23.9471 58.1269 24.0019 57.9952C24.0566 57.8634 24.1368 57.7438 24.2379 57.6431C24.3391 57.5424 24.4591 57.4626 24.5911 57.4084C24.7231 57.3542 24.8645 57.3265 25.0073 57.327H61.1697C61.3125 57.3265 61.4539 57.3542 61.5859 57.4084C61.7179 57.4626 61.8379 57.5424 61.939 57.6431C62.0401 57.7438 62.1204 57.8634 62.1751 57.9952C62.2299 58.1269 62.258 58.2682 62.258 58.4109V88.6662C62.257 88.954 62.1419 89.2296 61.9379 89.4328C61.7339 89.6359 61.4577 89.75 61.1697 89.75ZM25.0073 58.1269C24.9696 58.1264 24.9322 58.1333 24.8973 58.1474C24.8624 58.1614 24.8306 58.1822 24.8038 58.2087C24.777 58.2351 24.7557 58.2666 24.7412 58.3013C24.7267 58.336 24.7192 58.3732 24.7192 58.4109V88.6662C24.7192 88.7038 24.7267 88.741 24.7412 88.7758C24.7557 88.8105 24.777 88.842 24.8038 88.8684C24.8306 88.8948 24.8624 88.9156 24.8973 88.9297C24.9322 88.9437 24.9696 88.9506 25.0073 88.9501H61.1697C61.2074 88.9506 61.2447 88.9437 61.2797 88.9297C61.3146 88.9156 61.3464 88.8948 61.3732 88.8684C61.4 88.842 61.4213 88.8105 61.4358 88.7758C61.4503 88.741 61.4578 88.7038 61.4578 88.6662V58.4109C61.4578 58.3732 61.4503 58.336 61.4358 58.3013C61.4213 58.2666 61.4 58.2351 61.3732 58.2087C61.3464 58.1822 61.3146 58.1614 61.2797 58.1474C61.2447 58.1333 61.2074 58.1264 61.1697 58.1269H25.0073Z" fill="white"/>
<path d="M56.8962 65.4259H28.696C28.5899 65.4259 28.4881 65.3837 28.4131 65.3087C28.3381 65.2337 28.2959 65.132 28.2959 65.0259C28.2959 64.9198 28.3381 64.8181 28.4131 64.7431C28.4881 64.6681 28.5899 64.626 28.696 64.626H56.8962C57.0023 64.626 57.1041 64.6681 57.1791 64.7431C57.2541 64.8181 57.2963 64.9198 57.2963 65.0259C57.2963 65.132 57.2541 65.2337 57.1791 65.3087C57.1041 65.3837 57.0023 65.4259 56.8962 65.4259Z" fill="white"/>
<path d="M56.8962 74.8884H28.696C28.5899 74.8884 28.4881 74.8462 28.4131 74.7712C28.3381 74.6962 28.2959 74.5945 28.2959 74.4884C28.2959 74.3824 28.3381 74.2806 28.4131 74.2056C28.4881 74.1306 28.5899 74.0885 28.696 74.0885H56.8962C57.0023 74.0885 57.1041 74.1306 57.1791 74.2056C57.2541 74.2806 57.2963 74.3824 57.2963 74.4884C57.2963 74.5945 57.2541 74.6962 57.1791 74.7712C57.1041 74.8462 57.0023 74.8884 56.8962 74.8884Z" fill="white"/>
<path d="M43.9004 70.1571H28.696C28.5899 70.1571 28.4881 70.1149 28.4131 70.0399C28.3381 69.9649 28.2959 69.8632 28.2959 69.7571C28.2959 69.651 28.3381 69.5493 28.4131 69.4743C28.4881 69.3993 28.5899 69.3572 28.696 69.3572H43.9004C44.0065 69.3572 44.1083 69.3993 44.1833 69.4743C44.2584 69.5493 44.3005 69.651 44.3005 69.7571C44.3005 69.8632 44.2584 69.9649 44.1833 70.0399C44.1083 70.1149 44.0065 70.1571 43.9004 70.1571Z" fill="white"/>
<path d="M43.9004 79.9036H28.696C28.5899 79.9036 28.4881 79.8615 28.4131 79.7865C28.3381 79.7115 28.2959 79.6098 28.2959 79.5037C28.2959 79.3976 28.3381 79.2959 28.4131 79.2209C28.4881 79.1459 28.5899 79.1038 28.696 79.1038H43.9004C44.0065 79.1038 44.1083 79.1459 44.1833 79.2209C44.2584 79.2959 44.3005 79.3976 44.3005 79.5037C44.3005 79.6098 44.2584 79.7115 44.1833 79.7865C44.1083 79.8615 44.0065 79.9036 43.9004 79.9036Z" fill="white"/>
<path d="M38.947 84.4189H28.696C28.5899 84.4189 28.4881 84.3768 28.4131 84.3018C28.3381 84.2268 28.2959 84.125 28.2959 84.019C28.2959 83.9129 28.3381 83.8112 28.4131 83.7362C28.4881 83.6612 28.5899 83.619 28.696 83.619H38.947C39.0531 83.619 39.1549 83.6612 39.2299 83.7362C39.3049 83.8112 39.3471 83.9129 39.3471 84.019C39.3471 84.125 39.3049 84.2268 39.2299 84.3018C39.1549 84.3768 39.0531 84.4189 38.947 84.4189Z" fill="white"/>
</g>
<path d="M161.082 56.7352H143.101C142.685 56.7542 142.287 56.9069 141.965 57.1708C141.644 57.4346 141.416 57.7953 141.317 58.199L140.72 60.1747C140.62 60.578 140.393 60.9382 140.071 61.2013C139.749 61.4644 139.351 61.6164 138.936 61.6345H113.188C112.148 61.6345 111.3 62.6103 111.3 63.8141V92.9536C111.3 94.1534 112.148 95.1293 113.188 95.1293H161.082C161.635 95.1033 162.156 94.8602 162.53 94.4528C162.905 94.0453 163.103 93.5066 163.083 92.9536V58.9229C163.107 58.3679 162.91 57.826 162.535 57.416C162.16 57.006 161.637 56.7612 161.082 56.7352Z" fill="#3E479B"/>
<path d="M142.709 61.9344L143.345 59.9587C143.467 59.5451 143.717 59.1809 144.059 58.9186C144.402 58.6562 144.819 58.5093 145.25 58.4989H161.082C161.636 58.5238 162.157 58.7666 162.532 59.1743C162.906 59.5819 163.105 60.1213 163.083 60.6746V94.7293C163.105 95.2829 162.907 95.8227 162.532 96.231C162.157 96.6393 161.636 96.883 161.082 96.9089H113.316C112.763 96.8819 112.243 96.638 111.868 96.2299C111.494 95.8218 111.295 95.2826 111.316 94.7293V65.5938C111.295 65.0404 111.494 64.5012 111.868 64.0932C112.243 63.6851 112.763 63.4411 113.316 63.4141H140.804C141.238 63.4031 141.657 63.2535 142 62.9872C142.343 62.7209 142.591 62.352 142.709 61.9344Z" fill="#6D6CD4"/>
<path opacity="0.12" d="M143.881 63.9581L144.482 62.0984C144.595 61.7071 144.83 61.3622 145.153 61.114C145.477 60.8658 145.871 60.7273 146.278 60.7186H161.198C161.721 60.7446 162.212 60.9738 162.567 61.3572C162.922 61.7407 163.113 62.2479 163.099 62.7703V94.8533C163.114 95.3764 162.924 95.8846 162.569 96.2689C162.213 96.6533 161.721 96.8831 161.198 96.909H116.193C115.671 96.8831 115.179 96.6533 114.823 96.2689C114.468 95.8846 114.278 95.3764 114.293 94.8533V67.3936C114.278 66.8705 114.468 66.3623 114.823 65.978C115.179 65.5936 115.671 65.3638 116.193 65.3379H142.101C142.505 65.3253 142.896 65.185 143.215 64.9371C143.535 64.6893 143.768 64.3466 143.881 63.9581Z" fill="white"/>
<path d="M157.641 94.4533H145.83C145.724 94.4533 145.622 94.4112 145.547 94.3362C145.472 94.2612 145.43 94.1594 145.43 94.0534C145.43 93.9473 145.472 93.8456 145.547 93.7706C145.622 93.6956 145.724 93.6534 145.83 93.6534H157.641C158.008 93.6534 158.361 93.5076 158.62 93.2481C158.88 92.9886 159.026 92.6367 159.026 92.2697V82.9031C159.026 82.797 159.068 82.6953 159.143 82.6203C159.218 82.5453 159.32 82.5032 159.426 82.5032C159.532 82.5032 159.634 82.5453 159.709 82.6203C159.784 82.6953 159.826 82.797 159.826 82.9031V92.2697C159.825 92.8485 159.594 93.4033 159.185 93.8126C158.775 94.2219 158.22 94.4523 157.641 94.4533Z" fill="white"/>
<path d="M20.0179 89.8781H38.1192C38.9194 89.8781 39.6476 90.542 39.9117 91.5258L40.5119 93.7495C40.7799 94.7333 41.5002 95.3932 42.3084 95.3932H68.2199C69.2682 95.3932 70.1204 96.493 70.1204 97.8448V130.62C70.1204 131.976 69.2682 133.071 68.2199 133.071H20.0179C18.8976 133.071 17.9854 131.976 17.9854 130.62V92.3297C17.9854 90.9779 18.8976 89.8781 20.0179 89.8781Z" fill="#F28393"/>
<path opacity="0.12" d="M38.5073 95.7411L37.8671 93.5175C37.7705 93.0718 37.5311 92.6698 37.1852 92.3724C36.8393 92.0751 36.4059 91.8986 35.9506 91.8698H20.0179C18.8976 91.8698 17.9854 92.9696 17.9854 94.3214V132.611C17.9854 133.963 18.8976 135.063 20.0179 135.063H68.0919C69.2122 135.063 70.1204 133.963 70.1204 132.611V99.8165C70.1204 98.4607 69.2122 97.3649 68.0919 97.3649H40.4278C39.9753 97.3377 39.5437 97.1648 39.1975 96.8721C38.8514 96.5795 38.6092 96.1827 38.5073 95.7411Z" fill="white"/>
<path opacity="0.12" d="M37.3309 97.9968L36.7268 95.9052C36.6359 95.4847 36.41 95.1055 36.0835 94.8254C35.757 94.5452 35.3478 94.3795 34.9183 94.3534H19.9019C18.8456 94.3534 17.9854 95.3852 17.9854 96.661V132.751C17.9854 134.027 18.8456 135.063 19.9019 135.063H65.215C66.2713 135.063 67.1276 134.027 67.1276 132.751V101.86C67.1276 100.584 66.2713 99.5486 65.215 99.5486H39.1355C38.7067 99.5217 38.2984 99.3555 37.9726 99.0754C37.6469 98.7954 37.4216 98.4166 37.3309 97.9968Z" fill="white"/>
<path d="M21.6861 103.948C21.5871 103.938 21.4953 103.891 21.4287 103.818C21.3621 103.744 21.3255 103.647 21.326 103.548V97.9968C21.3083 97.6579 21.424 97.3254 21.6483 97.0706C21.8726 96.8157 22.1877 96.6587 22.5263 96.6331H30.0085C30.1146 96.6331 30.2164 96.6752 30.2914 96.7502C30.3665 96.8252 30.4086 96.9269 30.4086 97.033C30.4086 97.1391 30.3665 97.2408 30.2914 97.3158C30.2164 97.3908 30.1146 97.4329 30.0085 97.4329H22.5663C22.4252 97.4422 22.2933 97.5065 22.199 97.6119C22.1047 97.7174 22.0556 97.8556 22.0622 97.9968V103.548C22.0624 103.65 22.0235 103.748 21.9536 103.823C21.8837 103.897 21.788 103.942 21.6861 103.948Z" fill="white"/>
<path d="M118.586 41.7736H67.1675C58.6289 41.7736 51.707 48.6924 51.707 57.2272C51.707 65.7619 58.6289 72.6808 67.1675 72.6808H118.586C127.125 72.6808 134.047 65.7619 134.047 57.2272C134.047 48.6924 127.125 41.7736 118.586 41.7736Z" fill="#C5D9FF"/>
<path d="M92.8751 65.8698C104.883 65.8698 114.617 56.1398 114.617 44.1372C114.617 32.1346 104.883 22.4045 92.8751 22.4045C80.8672 22.4045 71.1328 32.1346 71.1328 44.1372C71.1328 56.1398 80.8672 65.8698 92.8751 65.8698Z" fill="#599AF2"/>
<path d="M118.586 37.2223H67.1675C58.6289 37.2223 51.707 44.1411 51.707 52.6759C51.707 61.2107 58.6289 68.1295 67.1675 68.1295H118.586C127.125 68.1295 134.047 61.2107 134.047 52.6759C134.047 44.1411 127.125 37.2223 118.586 37.2223Z" fill="#599AF2"/>
<path d="M101.48 59.5395C112.508 54.79 117.596 42.0039 112.844 30.981C108.093 19.9581 95.3011 14.8725 84.2733 19.622C73.2455 24.3715 68.1576 37.1575 72.9092 48.1804C77.6608 59.2033 90.4526 64.2889 101.48 59.5395Z" fill="#599AF2"/>
<g opacity="0.35">
<path d="M118.586 37.2223H67.1675C58.6289 37.2223 51.707 44.1411 51.707 52.6759C51.707 61.2107 58.6289 68.1295 67.1675 68.1295H118.586C127.125 68.1295 134.047 61.2107 134.047 52.6759C134.047 44.1411 127.125 37.2223 118.586 37.2223Z" fill="#ECF1F7"/>
<path d="M101.48 59.5395C112.508 54.79 117.596 42.0039 112.844 30.981C108.093 19.9581 95.3011 14.8725 84.2733 19.622C73.2455 24.3715 68.1576 37.1575 72.9092 48.1804C77.6608 59.2033 90.4526 64.2889 101.48 59.5395Z" fill="#ECF1F7"/>
</g>
<path d="M87.7852 42.8214C87.587 42.8209 87.3933 42.7616 87.2289 42.651C87.0644 42.5403 86.9365 42.3833 86.8615 42.1999C86.7865 42.0165 86.7677 41.8149 86.8075 41.6208C86.8473 41.4267 86.9439 41.2488 87.085 41.1096L92.9187 35.3745L98.6604 41.1136C98.756 41.2057 98.8324 41.3159 98.885 41.4378C98.9376 41.5598 98.9653 41.6909 98.9667 41.8237C98.968 41.9564 98.9429 42.0881 98.8928 42.211C98.8426 42.334 98.7685 42.4457 98.6748 42.5397C98.581 42.6337 98.4694 42.7081 98.3465 42.7586C98.2237 42.809 98.092 42.8345 97.9592 42.8336C97.8264 42.8326 97.6951 42.8052 97.573 42.753C97.4509 42.7008 97.3404 42.6248 97.248 42.5294L92.9067 38.1901L88.5054 42.5334C88.4109 42.6273 88.2984 42.7012 88.1746 42.7506C88.0509 42.8001 87.9185 42.8242 87.7852 42.8214Z" fill="white"/>
<path d="M92.8782 50.7721C92.6129 50.7721 92.3585 50.6668 92.1709 50.4793C91.9833 50.2918 91.8779 50.0375 91.8779 49.7723V36.7823C91.8779 36.5171 91.9833 36.2628 92.1709 36.0753C92.3585 35.8878 92.6129 35.7825 92.8782 35.7825C93.1435 35.7825 93.3979 35.8878 93.5855 36.0753C93.7731 36.2628 93.8785 36.5171 93.8785 36.7823V49.7723C93.8785 50.0375 93.7731 50.2918 93.5855 50.4793C93.3979 50.6668 93.1435 50.7721 92.8782 50.7721Z" fill="white"/>
<path d="M102.333 56.9432H83.2716C82.6144 56.9422 81.9845 56.6805 81.5201 56.2156C81.0557 55.7507 80.7949 55.1206 80.7949 54.4636V47.5367C80.7949 47.2715 80.9003 47.0172 81.0879 46.8297C81.2755 46.6422 81.5299 46.5369 81.7952 46.5369C82.0605 46.5369 82.3149 46.6422 82.5025 46.8297C82.6901 47.0172 82.7955 47.2715 82.7955 47.5367V54.4556C82.7955 54.5822 82.8455 54.7037 82.9347 54.7936C83.0239 54.8835 83.145 54.9345 83.2716 54.9356H102.333C102.499 54.9345 102.658 54.8679 102.775 54.7502C102.892 54.6326 102.957 54.4735 102.957 54.3077V47.5367C102.957 47.2715 103.063 47.0172 103.25 46.8297C103.438 46.6422 103.692 46.5369 103.958 46.5369C104.223 46.5369 104.477 46.6422 104.665 46.8297C104.853 47.0172 104.958 47.2715 104.958 47.5367V54.3357C104.953 55.0284 104.674 55.691 104.182 56.1793C103.691 56.6677 103.026 56.9422 102.333 56.9432Z" fill="white"/>
<path opacity="0.36" d="M123.123 123.097L68.5795 141.122C67.9427 141.332 67.2485 141.282 66.6487 140.983C66.0489 140.683 65.5922 140.158 65.3786 139.522L47.3734 85.0028C47.1628 84.3663 47.213 83.6724 47.5129 83.0729C47.8129 82.4733 48.3381 82.0168 48.9738 81.8033L103.518 63.8061C104.154 63.5968 104.848 63.6474 105.448 63.9471C106.047 64.2467 106.504 64.771 106.719 65.4058L124.724 119.925C124.926 120.558 124.871 121.245 124.572 121.838C124.273 122.431 123.752 122.883 123.123 123.097Z" fill="#4C65BA"/>
<path d="M99.4952 61.7395L44.9495 79.7497C43.615 80.1903 42.8906 81.6288 43.3314 82.9627L61.3495 137.484C61.7904 138.818 63.2295 139.542 64.564 139.102L119.11 121.091C120.444 120.651 121.169 119.212 120.728 117.878L102.71 63.3569C102.269 62.023 100.83 61.2989 99.4952 61.7395Z" fill="white"/>
<path d="M98.4894 67.6753L49.2246 83.9418L65.4983 133.185L114.763 116.918L98.4894 67.6753Z" fill="#C5D9FF"/>
<path opacity="0.47" d="M65.0874 133.595L61.4023 122.449L66.7919 109.463C67.147 108.594 67.8168 107.892 68.6675 107.495C69.5182 107.098 70.4873 107.037 71.3812 107.323L81.3561 110.419C81.6422 110.508 81.9501 110.499 82.2302 110.392C82.5103 110.286 82.7464 110.088 82.9006 109.831L91.207 96.0131C92.0665 94.5983 93.4062 93.5395 94.9818 93.03C96.5574 92.5204 98.2637 92.5941 99.7895 93.2375L108.936 97.1729L109.02 97.4289L115.474 116.95L114.906 117.138L65.0874 133.595ZM62.6867 122.497L65.8556 132.095L113.978 116.206L107.976 98.0768L99.3293 94.3294C98.0672 93.7909 96.6532 93.7259 95.3469 94.1462C94.0407 94.5664 92.9301 95.4438 92.2193 96.617L83.9129 110.439C83.6226 110.929 83.1757 111.306 82.6443 111.511C82.1129 111.716 81.528 111.735 80.984 111.567L71.0091 108.467C70.4022 108.276 69.7457 108.321 69.1699 108.591C68.5941 108.861 68.1409 109.338 67.9002 109.927L62.6867 122.497Z" fill="white"/>
<path opacity="0.47" d="M81.5355 95.2012C79.9256 95.2039 78.3738 94.6002 77.1893 93.5103C76.0048 92.4205 75.2746 90.9247 75.1441 89.3208C75.0137 87.7169 75.4925 86.1228 76.4853 84.856C77.4781 83.5893 78.912 82.7429 80.5012 82.4856C82.0903 82.2282 83.7182 82.5788 85.0603 83.4675C86.4024 84.3561 87.3603 85.7176 87.7432 87.2807C88.126 88.8437 87.9056 90.4935 87.1259 91.9013C86.3462 93.3092 85.0644 94.3717 83.5361 94.8773C82.891 95.0924 82.2155 95.2018 81.5355 95.2012ZM81.5355 83.635C80.435 83.6331 79.3622 83.98 78.4714 84.6261C77.5807 85.2721 76.9179 86.1839 76.5784 87.2302C76.2389 88.2766 76.2401 89.4036 76.582 90.4492C76.9239 91.4949 77.5887 92.4051 78.4809 93.0492C79.3731 93.6932 80.4466 94.0378 81.5471 94.0334C82.6476 94.0289 83.7184 93.6757 84.6053 93.0245C85.4923 92.3733 86.1498 91.4577 86.4832 90.4094C86.8166 89.3611 86.8088 88.2341 86.4609 87.1905C86.1132 86.157 85.4504 85.2583 84.5655 84.6207C83.6807 83.983 82.6183 83.6383 81.5275 83.635H81.5355Z" fill="white"/>
<path opacity="0.36" d="M139.54 85.2628H96.9598C95.5544 85.2628 94.415 86.4016 94.415 87.8064V130.368C94.415 131.773 95.5544 132.911 96.9598 132.911H139.54C140.946 132.911 142.085 131.773 142.085 130.368V87.8064C142.085 86.4016 140.946 85.2628 139.54 85.2628Z" fill="#4C65BA"/>
<path d="M137.123 82.8472H94.5428C93.1374 82.8472 91.998 83.986 91.998 85.3908V127.952C91.998 129.357 93.1374 130.496 94.5428 130.496H137.123C138.529 130.496 139.668 129.357 139.668 127.952V85.3908C139.668 83.986 138.529 82.8472 137.123 82.8472Z" fill="white"/>
<path opacity="0.39" d="M135.583 86.9026H96.0312V126.436H135.583V86.9026Z" fill="#F7A9B4"/>
<path opacity="0.47" d="M136.235 126.784H95.4873V117.638L102.529 109.487C103.016 108.923 103.697 108.56 104.437 108.472C105.177 108.383 105.924 108.574 106.531 109.007L113.008 113.634C113.168 113.748 113.362 113.804 113.558 113.795C113.753 113.785 113.94 113.711 114.089 113.582L123.407 105.584C124.397 104.737 125.659 104.276 126.962 104.285C128.265 104.295 129.52 104.774 130.497 105.636L136.223 110.711L136.235 126.784ZM96.6877 125.585H135.035V111.235L129.713 106.516C128.953 105.847 127.978 105.475 126.966 105.468C125.954 105.461 124.973 105.818 124.204 106.476L114.885 114.494C114.533 114.797 114.089 114.973 113.625 114.994C113.16 115.015 112.702 114.88 112.324 114.61L105.842 109.983C105.479 109.722 105.03 109.607 104.586 109.66C104.141 109.713 103.733 109.931 103.442 110.271L96.6917 118.082L96.6877 125.585Z" fill="white"/>
<path opacity="0.47" d="M118.246 103.164C117.255 103.164 116.286 102.87 115.463 102.32C114.639 101.77 113.997 100.988 113.618 100.073C113.238 99.158 113.139 98.1512 113.333 97.1799C113.526 96.2086 114.003 95.3164 114.704 94.6161C115.404 93.9158 116.297 93.439 117.268 93.2458C118.24 93.0525 119.247 93.1517 120.163 93.5307C121.078 93.9097 121.861 94.5515 122.411 95.3749C122.961 96.1983 123.255 97.1664 123.255 98.1568C123.254 99.4844 122.726 100.757 121.787 101.696C120.848 102.635 119.574 103.163 118.246 103.164ZM118.246 94.3653C117.492 94.3653 116.756 94.5887 116.13 95.007C115.503 95.4254 115.015 96.02 114.727 96.7157C114.438 97.4114 114.363 98.177 114.51 98.9155C114.657 99.6541 115.02 100.333 115.552 100.865C116.085 101.397 116.764 101.76 117.503 101.907C118.242 102.054 119.007 101.979 119.703 101.69C120.399 101.402 120.994 100.914 121.413 100.288C121.831 99.6619 122.055 98.9258 122.055 98.1727C122.056 97.6716 121.959 97.175 121.768 96.7114C121.578 96.2479 121.298 95.8265 120.944 95.4713C120.59 95.1162 120.169 94.8343 119.707 94.6418C119.244 94.4492 118.747 94.3499 118.246 94.3494V94.3653Z" fill="white"/>
<path opacity="0.36" d="M98.3342 108.173L74.2648 117.187C72.9487 117.68 72.2816 119.146 72.7747 120.461L81.793 144.52C82.2861 145.835 83.7528 146.502 85.0688 146.009L109.138 136.995C110.454 136.502 111.121 135.036 110.628 133.721L101.61 109.662C101.117 108.347 99.6503 107.68 98.3342 108.173Z" fill="#4C65BA"/>
<path d="M96.3244 107.257L72.255 116.271C70.939 116.764 70.2718 118.23 70.7649 119.545L79.7833 143.604C80.2764 144.92 81.743 145.587 83.0591 145.094L107.128 136.079C108.445 135.586 109.112 134.12 108.619 132.805L99.6003 108.746C99.1071 107.431 97.6405 106.764 96.3244 107.257Z" fill="white"/>
<path d="M97.1567 109.746L73.2334 118.705L82.197 142.618L106.12 133.658L97.1567 109.746Z" fill="#3B82F6"/>
<path opacity="0.47" d="M81.8231 143.226L79.6465 137.423L82.0872 130.82C82.271 130.316 82.6376 129.9 83.1142 129.654C83.5909 129.408 84.1426 129.35 84.6599 129.492L89.6254 130.82C89.7013 130.84 89.7816 130.834 89.854 130.804C89.9263 130.773 89.9866 130.72 90.0255 130.652L93.8426 123.689C94.2739 122.908 94.9731 122.309 95.8113 122.002C96.6495 121.696 97.5702 121.703 98.4039 122.021L103.109 123.825L106.866 133.847L81.8231 143.226ZM80.9269 137.419L82.5273 141.682L105.334 133.143L102.189 124.745L97.9878 123.145C97.425 122.929 96.8031 122.924 96.2369 123.13C95.6706 123.337 95.1982 123.741 94.9069 124.269L91.0898 131.232C90.923 131.537 90.6582 131.777 90.338 131.914C90.0179 132.05 89.6611 132.075 89.3253 131.984L84.3558 130.656C84.1277 130.592 83.8839 130.617 83.6732 130.725C83.4625 130.833 83.3005 131.017 83.2195 131.24L80.9269 137.419Z" fill="white"/>
<path opacity="0.47" d="M89.2259 123.925C88.5961 123.925 87.9784 123.753 87.4395 123.427C86.9007 123.101 86.4613 122.634 86.1691 122.077C85.877 121.519 85.7431 120.892 85.782 120.264C85.8209 119.636 86.0312 119.03 86.39 118.513C86.7488 117.996 87.2424 117.587 87.8173 117.33C88.3923 117.073 89.0266 116.978 89.6514 117.056C90.2763 117.134 90.8679 117.382 91.3621 117.772C91.8563 118.162 92.2342 118.68 92.4548 119.269C92.7748 120.123 92.7441 121.068 92.3693 121.899C91.9945 122.73 91.306 123.379 90.4542 123.705C90.062 123.854 89.6454 123.928 89.2259 123.925ZM89.2259 118.23C88.7469 118.23 88.2806 118.384 87.8949 118.668C87.5093 118.951 87.2244 119.351 87.0818 119.808C86.9392 120.265 86.9463 120.756 87.1022 121.209C87.258 121.661 87.5544 122.052 87.9482 122.325C88.3419 122.598 88.8125 122.737 89.2913 122.724C89.7701 122.711 90.2321 122.545 90.61 122.251C90.9879 121.957 91.262 121.549 91.3923 121.089C91.5226 120.628 91.5024 120.138 91.3345 119.689C91.171 119.262 90.8815 118.893 90.5043 118.634C90.1272 118.374 89.68 118.234 89.2219 118.234L89.2259 118.23Z" fill="white"/>
</g>
<defs>
<clipPath id="clip0_402_65750">
<rect width="183.409" height="180" fill="white" transform="translate(0.795898 0.5)"/>
</clipPath>
</defs>
</svg>
